<svg width="21" height="21" viewBox="0 0 21 21" fill="none" xmlns="http://www.w3.org/2000/svg">
<path d="M19.897 14.9792H5.89697C5.63176 14.9792 5.3774 14.8739 5.18987 14.6864C5.00233 14.4988 4.89697 14.2445 4.89697 13.9792C4.89697 13.714 5.00233 13.4597 5.18987 13.2721C5.3774 13.0846 5.63176 12.9792 5.89697 12.9792H16.337C17.0056 12.9793 17.6551 12.7559 18.1823 12.3447C18.7096 11.9334 19.0843 11.3578 19.247 10.7092L20.897 4.21925C20.9344 4.07166 20.9377 3.91746 20.9065 3.76842C20.8753 3.61938 20.8105 3.47943 20.717 3.35925C20.6197 3.23598 20.4948 3.13735 20.3524 3.07133C20.2099 3.00531 20.0539 2.97377 19.897 2.97925H5.65697C5.45066 2.3957 5.0689 1.89025 4.56404 1.53219C4.05917 1.17413 3.45592 0.980988 2.83697 0.979248H1.89697C1.63176 0.979248 1.3774 1.0846 1.18987 1.27214C1.00233 1.45968 0.896973 1.71403 0.896973 1.97925C0.896973 2.24446 1.00233 2.49882 1.18987 2.68635C1.3774 2.87389 1.63176 2.97925 1.89697 2.97925H2.83697C3.06541 2.97259 3.28923 3.04438 3.47118 3.18266C3.65313 3.32094 3.78222 3.51737 3.83697 3.73925L3.89697 4.21925L5.62697 10.9792C4.83132 11.0151 4.08248 11.3655 3.54519 11.9534C3.0079 12.5413 2.72617 13.3186 2.76197 14.1142C2.79778 14.9099 3.14819 15.6587 3.73611 16.196C4.32404 16.7333 5.10132 17.0151 5.89697 16.9792H6.07697C5.91251 17.4324 5.85966 17.9185 5.9229 18.3964C5.98615 18.8742 6.16362 19.3299 6.44029 19.7246C6.71696 20.1194 7.08469 20.4416 7.51233 20.6641C7.93996 20.8866 8.41492 21.0028 8.89697 21.0028C9.37903 21.0028 9.85398 20.8866 10.2816 20.6641C10.7093 20.4416 11.077 20.1194 11.3537 19.7246C11.6303 19.3299 11.8078 18.8742 11.871 18.3964C11.9343 17.9185 11.8814 17.4324 11.717 16.9792H14.077C13.9125 17.4324 13.8597 17.9185 13.9229 18.3964C13.9861 18.8742 14.1636 19.3299 14.4403 19.7246C14.717 20.1194 15.0847 20.4416 15.5123 20.6641C15.94 20.8866 16.4149 21.0028 16.897 21.0028C17.379 21.0028 17.854 20.8866 18.2816 20.6641C18.7093 20.4416 19.077 20.1194 19.3537 19.7246C19.6303 19.3299 19.8078 18.8742 19.871 18.3964C19.9343 17.9185 19.8814 17.4324 19.717 16.9792H19.897C20.1622 16.9792 20.4165 16.8739 20.6041 16.6864C20.7916 16.4988 20.897 16.2445 20.897 15.9792C20.897 15.714 20.7916 15.4597 20.6041 15.2721C20.4165 15.0846 20.1622 14.9792 19.897 14.9792ZM18.617 4.97925L17.307 10.2192C17.2522 10.4411 17.1231 10.6376 16.9412 10.7758C16.7592 10.9141 16.5354 10.9859 16.307 10.9792H7.67697L6.17697 4.97925H18.617ZM8.89697 18.9792C8.69919 18.9792 8.50585 18.9206 8.3414 18.8107C8.17695 18.7008 8.04878 18.5447 7.97309 18.3619C7.89741 18.1792 7.8776 17.9781 7.91619 17.7842C7.95477 17.5902 8.05001 17.412 8.18987 17.2721C8.32972 17.1323 8.5079 17.037 8.70188 16.9985C8.89586 16.9599 9.09693 16.9797 9.27966 17.0554C9.46238 17.1311 9.61856 17.2592 9.72844 17.4237C9.83832 17.5881 9.89697 17.7815 9.89697 17.9792C9.89697 18.2445 9.79162 18.4988 9.60408 18.6864C9.41654 18.8739 9.16219 18.9792 8.89697 18.9792ZM16.897 18.9792C16.6992 18.9792 16.5059 18.9206 16.3414 18.8107C16.177 18.7008 16.0488 18.5447 15.9731 18.3619C15.8974 18.1792 15.8776 17.9781 15.9162 17.7842C15.9548 17.5902 16.05 17.412 16.1899 17.2721C16.3297 17.1323 16.5079 17.037 16.7019 16.9985C16.8959 16.9599 17.0969 16.9797 17.2797 17.0554C17.4624 17.1311 17.6186 17.2592 17.7284 17.4237C17.8383 17.5881 17.897 17.7815 17.897 17.9792C17.897 18.2445 17.7916 18.4988 17.6041 18.6864C17.4165 18.8739 17.1622 18.9792 16.897 18.9792Z" fill="#464838"/>
</svg>
