<svg width="25" height="25" viewBox="0 0 25 25" fill="none" xmlns="http://www.w3.org/2000/svg">
<g clip-path="url(#clip0_147_2759)">
<path d="M21.917 10.9795C21.917 17.9795 12.917 23.9795 12.917 23.9795C12.917 23.9795 3.91699 17.9795 3.91699 10.9795C3.91699 8.59254 4.8652 6.30336 6.55303 4.61553C8.24086 2.9277 10.53 1.97949 12.917 1.97949C15.3039 1.97949 17.5931 2.9277 19.281 4.61553C20.9688 6.30336 21.917 8.59254 21.917 10.9795Z" stroke="white" stroke-linecap="round" stroke-linejoin="round"/>
<path d="M12.917 13.9795C14.5738 13.9795 15.917 12.6363 15.917 10.9795C15.917 9.32264 14.5738 7.97949 12.917 7.97949C11.2601 7.97949 9.91699 9.32264 9.91699 10.9795C9.91699 12.6363 11.2601 13.9795 12.917 13.9795Z" stroke="white" stroke-linecap="round" stroke-linejoin="round"/>
</g>
<defs>
<clipPath id="clip0_147_2759">
<rect width="24" height="24" fill="white" transform="translate(0.916992 0.979492)"/>
</clipPath>
</defs>
</svg>
