<svg width="20" height="23" viewBox="0 0 20 23" fill="none" xmlns="http://www.w3.org/2000/svg">
<path d="M13.2145 11.1802C14.6222 10.1536 15.5389 8.49208 15.5389 6.62027C15.5389 3.50981 13.0084 0.979248 9.89789 0.979248C6.78742 0.979248 4.25686 3.50981 4.25686 6.62027C4.25686 8.49208 5.17351 10.1536 6.58126 11.1802C3.08188 12.5194 0.59021 15.9122 0.59021 19.8767C0.59021 21.5874 1.98201 22.9792 3.69277 22.9792H16.103C17.8138 22.9792 19.2056 21.5874 19.2056 19.8767C19.2056 15.9122 16.7139 12.5194 13.2145 11.1802ZM5.94919 6.62027C5.94919 4.44296 7.72057 2.67157 9.89789 2.67157C12.0752 2.67157 13.8466 4.44296 13.8466 6.62027C13.8466 8.79758 12.0752 10.569 9.89789 10.569C7.72057 10.569 5.94919 8.79758 5.94919 6.62027ZM16.103 21.2869H3.69277C2.91516 21.2869 2.28253 20.6543 2.28253 19.8766C2.28253 15.6775 5.69872 12.2613 9.89793 12.2613C14.0971 12.2613 17.5133 15.6774 17.5133 19.8766C17.5133 20.6543 16.8807 21.2869 16.103 21.2869Z" fill="#464838"/>
</svg>
